<svg xmlns="http://www.w3.org/2000/svg" version="1.1" width="3300" height="2000"><g id="Notes"><style>
    text {
      font-family: monospace;
      text-anchor: middle;
    }
    text.emphasis {
      font-weight:bold;
    }
    text.lanchor {
      text-anchor: start;
    }
  </style><rect height="2200" id="artboard" fill="white" width="3300" x="0" y="0"/><line id="" style="fill:none;stroke:black;stroke-width:0.5;" x1="263" x2="3036" y1="292" y2="292"/><text class="lanchor emphasis" transform="matrix(1 0 0 1 263 322)">Weight/Scale Variations</text><text transform="matrix(1 0 0 1 559.711 322)">Ultralight</text><text transform="matrix(1 0 0 1 856.422 322)">Thin</text><text transform="matrix(1 0 0 1 1153.13 322)">Light</text><text transform="matrix(1 0 0 1 1449.84 322)">Regular</text><text transform="matrix(1 0 0 1 1746.56 322)">Medium</text><text transform="matrix(1 0 0 1 2043.27 322)">Semibold</text><text transform="matrix(1 0 0 1 2339.98 322)">Bold</text><text transform="matrix(1 0 0 1 2636.69 322)">Heavy</text><text transform="matrix(1 0 0 1 2933.4 322)">Black</text><text id="template-version" style="text-anchor: end;" transform="matrix(1 0 0 1 3036 1933)">Template v.1.0</text><text class="lanchor" transform="matrix(1 0 0 1 263 726)">Small</text><text class="lanchor" transform="matrix(1 0 0 1 263 1156)">Medium</text><text class="lanchor" transform="matrix(1 0 0 1 263 1586)">Large</text></g><g id="Guides"><g id="H-reference" style="fill:#27AAE1;stroke:none;" transform="matrix(1 0 0 1 339 696)"><path d="M 54.9316 0 L 57.666 0 L 30.5664 -70.459 L 28.0762 -70.459 L 0.976562 0 L 3.66211 0 L 12.9395 -24.4629 L 45.7031 -24.4629 Z M 29.1992 -67.0898 L 29.4434 -67.0898 L 44.8242 -26.709 L 13.8184 -26.709 Z"/></g><line id="Baseline-S" style="fill:none;stroke:#27AAE1;opacity:1;stroke-width:0.577;" x1="263" x2="3036" y1="696" y2="696"/><line id="Capline-S" style="fill:none;stroke:#27AAE1;opacity:1;stroke-width:0.577;" x1="263" x2="3036" y1="625.541" y2="625.541"/><g id="H-reference" style="fill:#27AAE1;stroke:none;" transform="matrix(1 0 0 1 339 1126)"><path d="M 54.9316 0 L 57.666 0 L 30.5664 -70.459 L 28.0762 -70.459 L 0.976562 0 L 3.66211 0 L 12.9395 -24.4629 L 45.7031 -24.4629 Z M 29.1992 -67.0898 L 29.4434 -67.0898 L 44.8242 -26.709 L 13.8184 -26.709 Z"/></g><line id="Baseline-M" style="fill:none;stroke:#27AAE1;opacity:1;stroke-width:0.577;" x1="263" x2="3036" y1="1126" y2="1126"/><line id="Capline-M" style="fill:none;stroke:#27AAE1;opacity:1;stroke-width:0.577;" x1="263" x2="3036" y1="1055.54" y2="1055.54"/><g id="H-reference" style="fill:#27AAE1;stroke:none;" transform="matrix(1 0 0 1 339 1556)"><path d="M 54.9316 0 L 57.666 0 L 30.5664 -70.459 L 28.0762 -70.459 L 0.976562 0 L 3.66211 0 L 12.9395 -24.4629 L 45.7031 -24.4629 Z M 29.1992 -67.0898 L 29.4434 -67.0898 L 44.8242 -26.709 L 13.8184 -26.709 Z"/></g><line id="Baseline-L" style="fill:none;stroke:#27AAE1;opacity:1;stroke-width:0.577;" x1="263" x2="3036" y1="1556" y2="1556"/><line id="Capline-L" style="fill:none;stroke:#27AAE1;opacity:1;stroke-width:0.577;" x1="263" x2="3036" y1="1485.54" y2="1485.54"/><rect height="119.336" id="left-margin" style="fill:darkred;stroke:none;opacity:0.4;" width="12.4512" x="1394.06" y="1030.79"/><rect height="119.336" id="right-margin" style="fill:darkgreen;stroke:none;opacity:0.4;" width="12.4512" x="1502.5112" y="1030.79"/><rect x="1406.5112" y="1045" width="96" height="96" fill="none" stroke="blue" stroke-dasharray="5"/><rect x="1394.06" y="1030.79" width="120.9024" height="119.336" fill="none" stroke="blue"/></g><g id="Symbols"><g id="Bold-L" transform="matrix(1 0 0 1 2266 1556)"><path d="M3.548 -41.357  42.892 -111.824  82.076 -41.357 H3.548 Z M43.215 30.56 Q30.843 30.56 22.033 21.813 Q13.223 13.066 13.223 0.782 Q13.223 -11.687 22.009 -20.395 Q30.794 -29.102 43.132 -29.102 Q55.47 -29.102 64.177 -20.34 Q72.885 -11.578 72.885 0.726 Q72.885 13.097 64.169 21.828 Q55.454 30.56 43.215 30.56 Z M43.209 15.241 Q49.181 15.241 53.454 11.039 Q57.727 6.836 57.727 0.729 Q57.727 -5.246 53.425 -9.595 Q49.123 -13.945 43.134 -13.945 Q37.079 -13.945 32.81 -9.597 Q28.541 -5.249 28.541 0.804 Q28.541 6.856 32.79 11.049 Q37.038 15.241 43.209 15.241 Z M29.67 -56.515 H56.115 L42.892 -80.38 L29.67 -56.515 Z M84.817 30.56 V-29.102 H144.48 V30.56 H84.817 Z M100.136 15.241 H129.322 V-13.945 H100.136 V15.241 Z M114.81 -41.357 Q103.684 -50.71 96.549 -57.081 Q89.414 -63.451 85.423 -68.207 Q81.431 -72.962 79.899 -76.921 Q78.368 -80.88 78.368 -85.379 Q78.368 -94.409 84.253 -100.133 Q90.139 -105.857 99.33 -105.857 Q103.802 -105.857 107.916 -103.756 Q112.029 -101.655 114.81 -97.956 Q117.458 -101.655 121.614 -103.756 Q125.769 -105.857 130.29 -105.857 Q139.481 -105.857 145.286 -100.133 Q151.091 -94.409 151.091 -85.379 Q151.091 -80.88 149.559 -76.921 Q148.028 -72.962 144.036 -68.207 Q140.045 -63.451 132.91 -57.081 Q125.775 -50.71 114.81 -41.357 Z M114.81 -61.836 Q127.226 -72.317 131.58 -76.613 Q135.934 -80.908 135.934 -83.927 Q135.934 -86.819 134.252 -88.598 Q132.569 -90.377 129.654 -90.377 Q127.816 -90.377 126.138 -89.375 Q124.461 -88.372 121.421 -86.024 L114.729 -80.38 L108.199 -86.024 Q105.213 -88.43 103.4 -89.404 Q101.588 -90.377 99.975 -90.377 Q96.957 -90.377 95.322 -88.598 Q93.686 -86.819 93.686 -83.927 Q93.686 -80.923 97.976 -76.651 Q102.265 -72.379 114.81 -61.836 Z"/></g><g id="Semibold-L" transform="matrix(1 0 0 1 1970.27 1556)"><path d="M7.614 -41.498  43.874 -106.566  80.043 -41.498 H7.614 Z M44.126 27.195 Q32.506 27.195 24.231 18.956 Q15.956 10.716 15.956 -0.854 Q15.956 -12.599 24.218 -20.781 Q32.479 -28.962 44.08 -28.962 Q55.68 -28.962 63.897 -20.715 Q72.114 -12.467 72.114 -0.885 Q72.114 10.734 63.893 18.965 Q55.671 27.195 44.126 27.195 Z M44.123 14.33 Q50.443 14.33 54.891 9.921 Q59.34 5.513 59.34 -0.884 Q59.34 -7.205 54.875 -11.697 Q50.41 -16.188 44.081 -16.188 Q37.714 -16.188 33.268 -11.698 Q28.822 -7.207 28.822 -0.841 Q28.822 5.524 33.256 9.927 Q37.69 14.33 44.123 14.33 Z M29.53 -54.272 H58.218 L43.874 -80.1 L29.53 -54.272 Z M84.397 27.195 V-28.962 H140.554 V27.195 H84.397 Z M97.262 14.33 H127.78 V-16.188 H97.262 V14.33 Z M112.567 -41.498 Q102.282 -50.149 95.55 -56.064 Q88.818 -61.978 84.949 -66.419 Q81.081 -70.859 79.514 -74.639 Q77.947 -78.419 77.947 -82.715 Q77.947 -90.974 83.482 -96.383 Q89.017 -101.791 97.507 -101.791 Q101.858 -101.791 105.866 -99.762 Q109.873 -97.733 112.567 -94.03 Q115.185 -97.733 119.217 -99.762 Q123.248 -101.791 127.626 -101.791 Q136.116 -101.791 141.606 -96.383 Q147.095 -90.974 147.095 -82.715 Q147.095 -78.419 145.528 -74.639 Q143.961 -70.859 140.093 -66.419 Q136.225 -61.978 129.493 -56.064 Q122.761 -50.149 112.567 -41.498 Z M112.567 -58.611 Q125.544 -69.443 129.933 -73.974 Q134.321 -78.505 134.321 -81.754 Q134.321 -84.929 132.469 -86.882 Q130.617 -88.835 127.407 -88.835 Q125.449 -88.835 123.628 -87.778 Q121.807 -86.72 118.757 -84.201 L112.521 -78.698 L106.376 -84.201 Q103.38 -86.778 101.467 -87.807 Q99.554 -88.835 97.732 -88.835 Q94.464 -88.835 92.638 -86.882 Q90.812 -84.929 90.812 -81.754 Q90.812 -78.514 95.164 -73.996 Q99.517 -69.478 112.567 -58.611 Z"/></g><g id="Medium-L" transform="matrix(1 0 0 1 1674.31 1556)"><path d="M10.663 -41.603  44.61 -102.622  78.518 -41.603 H10.663 Z M44.81 24.671 Q33.754 24.671 25.881 16.813 Q18.007 8.955 18.007 -2.08 Q18.007 -13.282 25.875 -21.07 Q33.742 -28.857 44.79 -28.857 Q55.838 -28.857 63.687 -20.995 Q71.535 -13.134 71.535 -2.094 Q71.535 8.962 63.685 16.817 Q55.834 24.671 44.81 24.671 Z M44.809 13.646 Q51.39 13.646 55.97 9.083 Q60.549 4.52 60.549 -2.093 Q60.549 -8.675 55.962 -13.273 Q51.376 -17.871 44.791 -17.871 Q38.19 -17.871 33.611 -13.273 Q29.032 -8.676 29.032 -2.075 Q29.032 4.525 33.606 9.086 Q38.18 13.646 44.809 13.646 Z M29.425 -52.589 H59.796 L44.61 -79.889 L29.425 -52.589 Z M84.081 24.671 V-28.857 H137.609 V24.671 H84.081 Z M95.106 13.646 H126.623 V-17.871 H95.106 V13.646 Z M110.884 -41.603 Q101.23 -49.728 94.8 -55.301 Q88.37 -60.873 84.594 -65.077 Q80.818 -69.282 79.225 -72.928 Q77.631 -76.574 77.631 -80.717 Q77.631 -88.397 82.903 -93.569 Q88.176 -98.742 96.14 -98.742 Q100.399 -98.742 104.328 -96.767 Q108.256 -94.792 110.884 -91.086 Q113.48 -94.792 117.419 -96.767 Q121.357 -98.742 125.628 -98.742 Q133.592 -98.742 138.845 -93.569 Q144.098 -88.397 144.098 -80.717 Q144.098 -76.574 142.505 -72.928 Q140.912 -69.282 137.135 -65.077 Q133.359 -60.873 126.929 -55.301 Q120.499 -49.728 110.884 -41.603 Z M110.884 -56.192 Q124.282 -67.287 128.697 -71.995 Q133.112 -76.703 133.112 -80.124 Q133.112 -83.511 131.132 -85.594 Q129.153 -87.678 125.721 -87.678 Q123.674 -87.678 121.745 -86.58 Q119.817 -85.481 116.759 -82.834 L110.865 -77.435 L105.009 -82.834 Q102.005 -85.539 100.017 -86.609 Q98.03 -87.678 96.049 -87.678 Q92.593 -87.678 90.625 -85.594 Q88.656 -83.511 88.656 -80.124 Q88.656 -76.706 93.056 -72.004 Q97.455 -67.302 110.884 -56.192 Z"/></g><g id="Regular-L" transform="matrix(1 0 0 1 1378.56 1556)"><path d="M12.9 -41.68  45.15 -99.73  77.4 -41.68 H12.9 Z M45.311 22.82 Q34.669 22.82 27.09 15.241 Q19.511 7.663 19.511 -2.98 Q19.511 -13.784 27.09 -21.282 Q34.669 -28.78 45.311 -28.78 Q55.954 -28.78 63.532 -21.201 Q71.111 -13.622 71.111 -2.98 Q71.111 7.663 63.532 15.241 Q55.954 22.82 45.311 22.82 Z M45.311 13.145 Q52.084 13.145 56.76 8.469 Q61.436 3.793 61.436 -2.98 Q61.436 -9.752 56.76 -14.429 Q52.084 -19.105 45.311 -19.105 Q38.539 -19.105 33.863 -14.429 Q29.186 -9.752 29.186 -2.98 Q29.186 3.793 33.863 8.469 Q38.539 13.145 45.311 13.145 Z M29.348 -51.355 H60.953 L45.15 -79.735 L29.348 -51.355 Z M83.85 22.82 V-28.78 H135.45 V22.82 H83.85 Z M93.525 13.145 H125.775 V-19.105 H93.525 V13.145 Z M109.65 -41.68 Q100.459 -49.42 94.251 -54.741 Q88.043 -60.062 84.334 -64.094 Q80.625 -68.125 79.013 -71.672 Q77.4 -75.22 77.4 -79.251 Q77.4 -86.507 82.479 -91.506 Q87.559 -96.505 95.138 -96.505 Q99.33 -96.505 103.2 -94.57 Q107.07 -92.635 109.65 -88.926 Q112.23 -92.635 116.1 -94.57 Q119.97 -96.505 124.163 -96.505 Q131.741 -96.505 136.821 -91.506 Q141.9 -86.507 141.9 -79.251 Q141.9 -75.22 140.287 -71.672 Q138.675 -68.125 134.966 -64.094 Q131.257 -60.062 125.049 -54.741 Q118.841 -49.42 109.65 -41.68 Z M109.65 -54.419 Q123.356 -65.706 127.791 -70.544 Q132.225 -75.381 132.225 -78.929 Q132.225 -82.471 130.152 -84.65 Q128.079 -86.83 124.485 -86.83 Q122.372 -86.83 120.365 -85.701 Q118.358 -84.572 115.294 -81.831 L109.65 -76.51 L104.006 -81.831 Q100.996 -84.631 98.954 -85.73 Q96.911 -86.83 94.815 -86.83 Q91.221 -86.83 89.148 -84.65 Q87.075 -82.471 87.075 -78.929 Q87.075 -75.381 91.509 -70.544 Q95.944 -65.706 109.65 -54.419 Z"/></g><g id="Light-L" transform="matrix(1 0 0 1 1082.77 1556)"><path d="M15.381 -43.541  45.274 -96.567  75.167 -43.541 H15.381 Z M45.435 21.269 Q35.413 21.269 28.3 14.187 Q21.186 7.104 21.186 -2.953 Q21.186 -13.164 28.3 -20.197 Q35.413 -27.229 45.435 -27.229 Q55.52 -27.229 62.602 -20.147 Q69.685 -13.064 69.685 -2.98 Q69.685 7.104 62.602 14.187 Q55.52 21.269 45.435 21.269 Z M45.435 13.951 Q52.518 13.951 57.442 9.027 Q62.367 4.103 62.367 -2.98 Q62.367 -10.063 57.442 -14.987 Q52.518 -19.911 45.435 -19.911 Q38.353 -19.911 33.428 -14.987 Q28.504 -10.063 28.504 -2.98 Q28.504 4.103 33.428 9.027 Q38.353 13.951 45.435 13.951 Z M27.921 -50.859 H62.689 L45.274 -81.534 L27.921 -50.859 Z M85.525 21.269 V-27.229 H134.023 V21.269 H85.525 Z M92.843 13.951 H126.705 V-19.911 H92.843 V13.951 Z M109.774 -43.541 Q102.195 -49.792 96.607 -54.493 Q91.02 -59.194 87.373 -63.132 Q83.726 -67.071 81.928 -70.742 Q80.129 -74.414 80.129 -78.507 Q80.129 -85.019 84.557 -89.397 Q88.985 -93.776 95.696 -93.776 Q99.639 -93.776 103.293 -91.872 Q106.946 -89.968 109.774 -86.197 Q112.602 -89.968 116.286 -91.872 Q119.97 -93.776 123.914 -93.776 Q130.539 -93.776 134.979 -89.298 Q139.419 -84.821 139.419 -78.321 Q139.419 -74.29 137.62 -70.649 Q135.822 -67.009 132.175 -63.101 Q128.529 -59.194 122.941 -54.493 Q117.353 -49.792 109.774 -43.541 Z M109.774 -53.116 Q122.736 -63.473 127.418 -68.776 Q132.101 -74.079 132.101 -78.184 Q132.101 -81.833 129.888 -84.146 Q127.675 -86.458 124.051 -86.458 Q121.889 -86.458 119.783 -85.198 Q117.677 -83.937 114.177 -80.715 L109.774 -76.51 L105.371 -80.715 Q101.927 -84.072 99.791 -85.265 Q97.656 -86.458 95.497 -86.458 Q91.811 -86.458 89.629 -84.239 Q87.447 -82.019 87.447 -78.309 Q87.447 -74.079 92.13 -68.776 Q96.812 -63.473 109.774 -53.116 Z"/></g><g id="Thin-L" transform="matrix(1 0 0 1 787.282 1556)"><path d="M17.862 -45.401  45.398 -93.404  72.935 -45.401 H17.862 Z M45.559 19.719 Q36.157 19.719 29.509 13.133 Q22.86 6.546 22.86 -2.927 Q22.86 -12.543 29.509 -19.111 Q36.157 -25.679 45.559 -25.679 Q55.085 -25.679 61.672 -19.093 Q68.258 -12.506 68.258 -2.98 Q68.258 6.546 61.672 13.133 Q55.085 19.719 45.559 19.719 Z M45.559 14.758 Q52.952 14.758 58.124 9.585 Q63.297 4.413 63.297 -2.98 Q63.297 -10.373 58.124 -15.545 Q52.952 -20.717 45.559 -20.717 Q38.167 -20.717 32.994 -15.545 Q27.822 -10.373 27.822 -2.98 Q27.822 4.413 32.994 9.585 Q38.167 14.758 45.559 14.758 Z M26.495 -50.363 H64.426 L45.398 -83.332 L26.495 -50.363 Z M87.199 19.719 V-25.679 H132.597 V19.719 H87.199 Z M92.161 14.758 H127.636 V-20.717 H92.161 V14.758 Z M109.898 -45.401 Q103.932 -50.164 98.964 -54.245 Q93.996 -58.326 90.412 -62.171 Q86.827 -66.016 84.842 -69.812 Q82.858 -73.607 82.858 -77.763 Q82.858 -83.531 86.635 -87.289 Q90.412 -91.047 96.254 -91.047 Q99.949 -91.047 103.385 -89.174 Q106.822 -87.301 109.898 -83.469 Q112.974 -87.301 116.472 -89.174 Q119.97 -91.047 123.666 -91.047 Q129.337 -91.047 133.138 -87.091 Q136.938 -83.134 136.938 -77.391 Q136.938 -73.359 134.954 -69.626 Q132.969 -65.892 129.385 -62.109 Q125.8 -58.326 120.832 -54.245 Q115.864 -50.164 109.898 -45.401 Z M109.898 -51.814 Q122.116 -61.241 127.046 -67.009 Q131.977 -72.776 131.977 -77.44 Q131.977 -81.196 129.625 -83.641 Q127.272 -86.086 123.617 -86.086 Q121.405 -86.086 119.201 -84.694 Q116.997 -83.302 113.061 -79.599 L109.898 -76.51 L106.735 -79.599 Q102.857 -83.514 100.628 -84.8 Q98.4 -86.086 96.179 -86.086 Q92.4 -86.086 90.11 -83.827 Q87.819 -81.568 87.819 -77.688 Q87.819 -72.776 92.75 -67.009 Q97.68 -61.241 109.898 -51.814 Z"/></g><g id="Ultralight-L" transform="matrix(1 0 0 1 491.205 1556)"><path d="M19.35 -46.517  45.473 -91.506  71.595 -46.517 H19.35 Z M45.634 18.789 Q36.604 18.789 30.234 12.5 Q23.865 6.211 23.865 -2.911 Q23.865 -12.171 30.234 -18.46 Q36.604 -24.749 45.634 -24.749 Q54.825 -24.749 61.114 -18.46 Q67.403 -12.171 67.403 -2.98 Q67.403 6.211 61.114 12.5 Q54.825 18.789 45.634 18.789 Z M45.634 15.241 Q53.212 15.241 58.534 9.92 Q63.855 4.599 63.855 -2.98 Q63.855 -10.559 58.534 -15.88 Q53.212 -21.201 45.634 -21.201 Q38.055 -21.201 32.734 -15.88 Q27.413 -10.559 27.413 -2.98 Q27.413 4.599 32.734 9.92 Q38.055 15.241 45.634 15.241 Z M25.639 -50.065 H65.468 L45.473 -84.411 L25.639 -50.065 Z M88.204 18.789 V-24.749 H131.741 V18.789 H88.204 Z M91.751 15.241 H128.194 V-21.201 H91.751 V15.241 Z M109.972 -46.517 Q104.974 -50.387 100.378 -54.096 Q95.782 -57.805 92.235 -61.594 Q88.688 -65.384 86.591 -69.254 Q84.495 -73.124 84.495 -77.316 Q84.495 -82.637 87.881 -86.024 Q91.267 -89.41 96.589 -89.41 Q100.134 -89.41 103.441 -87.556 Q106.748 -85.701 109.972 -81.831 Q113.198 -85.701 116.584 -87.556 Q119.97 -89.41 123.517 -89.41 Q128.616 -89.41 132.033 -85.766 Q135.45 -82.122 135.45 -76.832 Q135.45 -72.801 133.354 -69.012 Q131.257 -65.222 127.71 -61.514 Q124.163 -57.805 119.567 -54.096 Q114.971 -50.387 109.972 -46.517 Z M109.972 -51.032 Q121.744 -59.901 126.823 -65.948 Q131.903 -71.995 131.903 -76.994 Q131.903 -80.814 129.466 -83.338 Q127.03 -85.862 123.356 -85.862 Q121.115 -85.862 118.852 -84.392 Q116.589 -82.921 112.391 -78.929 L109.972 -76.51 L107.554 -78.929 Q103.415 -83.179 101.131 -84.521 Q98.846 -85.862 96.589 -85.862 Q92.753 -85.862 90.398 -83.58 Q88.043 -81.298 88.043 -77.316 Q88.043 -71.995 93.122 -65.948 Q98.201 -59.901 109.972 -51.032 Z"/></g><g id="Bold-M" transform="matrix(1 0 0 1 2281.8 1126)"><path d="M0.375 -39.855  32.625 -97.73  64.75 -39.855 H0.375 Z M32.75 17.77 Q22.747 17.77 15.623 10.679 Q8.5 3.587 8.5 -6.371 Q8.5 -16.48 15.623 -23.542 Q22.746 -30.605 32.748 -30.605 Q42.75 -30.605 49.812 -23.482 Q56.875 -16.359 56.875 -6.357 Q56.875 3.645 49.788 10.708 Q42.702 17.77 32.75 17.77 Z M32.746 2.02 Q36.25 2.02 38.688 -0.44 Q41.125 -2.9 41.125 -6.355 Q41.125 -9.861 38.665 -12.358 Q36.205 -14.855 32.75 -14.855 Q29.244 -14.855 26.747 -12.359 Q24.25 -9.864 24.25 -6.359 Q24.25 -2.855 26.746 -0.417 Q29.241 2.02 32.746 2.02 Z M27.25 -55.605 H38 L32.625 -65.23 L27.25 -55.605 Z M66 17.77 V-30.605 H114.375 V17.77 H66 Z M81.75 2.02 H98.625 V-14.855 H81.75 V2.02 Z M90.25 -39.855 Q81.125 -47.605 75.438 -52.792 Q69.75 -57.98 66.562 -61.855 Q63.375 -65.73 62.188 -68.918 Q61 -72.107 61 -75.73 Q61 -83.23 65.75 -87.792 Q70.5 -92.355 78.125 -92.355 Q81.763 -92.355 84.928 -90.726 Q88.094 -89.097 90.25 -86.23 Q92.428 -89.097 95.626 -90.726 Q98.825 -92.355 102.5 -92.355 Q110.125 -92.355 114.812 -87.792 Q119.5 -83.23 119.5 -75.73 Q119.5 -72.107 118.312 -68.918 Q117.125 -65.73 113.938 -61.855 Q110.75 -57.98 105.062 -52.792 Q99.375 -47.605 90.25 -39.855 Z M90.25 -60.98 Q98.125 -67.605 100.938 -70.167 Q103.75 -72.73 103.75 -74.23 Q103.75 -75.183 103.214 -75.769 Q102.679 -76.355 101.75 -76.355 Q100.845 -76.355 99.985 -75.792 Q99.125 -75.23 97.5 -73.855 L90.25 -67.73 L83.125 -73.855 Q81.5 -75.23 80.562 -75.792 Q79.625 -76.355 78.75 -76.355 Q77.821 -76.355 77.286 -75.769 Q76.75 -75.183 76.75 -74.23 Q76.75 -72.73 79.562 -70.167 Q82.375 -67.605 90.25 -60.98 Z"/></g><g id="Semibold-M" transform="matrix(1 0 0 1 1985.97 1126)"><path d="M4.559 -40.018  33.657 -92.296  62.685 -40.018 H4.559 Z M33.728 14.292 Q24.487 14.292 17.907 7.729 Q11.326 1.167 11.326 -8.049 Q11.326 -17.404 17.906 -23.923 Q24.486 -30.442 33.727 -30.442 Q42.967 -30.442 49.514 -23.862 Q56.06 -17.281 56.06 -8.041 Q56.06 1.2 49.5 7.746 Q42.94 14.292 33.728 14.292 Z M33.726 1.042 Q37.5 1.042 40.155 -1.626 Q42.81 -4.293 42.81 -8.04 Q42.81 -11.815 40.142 -14.503 Q37.474 -17.192 33.728 -17.192 Q29.953 -17.192 27.265 -14.504 Q24.576 -11.816 24.576 -8.042 Q24.576 -4.268 27.264 -1.613 Q29.951 1.042 33.726 1.042 Z M27.141 -53.268 H40.174 L33.657 -64.958 L27.141 -53.268 Z M65.565 14.292 V-30.442 H110.299 V14.292 H65.565 Z M78.815 1.042 H97.049 V-17.192 H78.815 V1.042 Z M87.968 -40.018 Q79.712 -47.007 74.405 -51.733 Q69.098 -56.458 66.046 -60.007 Q62.995 -63.556 61.78 -66.554 Q60.565 -69.552 60.565 -72.958 Q60.565 -79.643 64.962 -83.907 Q69.359 -88.17 76.223 -88.17 Q79.746 -88.17 82.813 -86.57 Q85.88 -84.97 87.968 -82.154 Q90.068 -84.97 93.153 -86.57 Q96.238 -88.17 99.783 -88.17 Q106.647 -88.17 111.008 -83.907 Q115.37 -79.643 115.37 -72.958 Q115.37 -69.552 114.155 -66.554 Q112.941 -63.556 109.889 -60.007 Q106.837 -56.458 101.53 -51.733 Q96.223 -47.007 87.968 -40.018 Z M87.968 -57.665 Q96.332 -64.67 99.226 -67.477 Q102.12 -70.284 102.12 -72.002 Q102.12 -73.247 101.409 -74.013 Q100.699 -74.779 99.468 -74.779 Q98.412 -74.779 97.41 -74.162 Q96.408 -73.545 94.728 -72.007 L87.968 -65.991 L81.277 -72.007 Q79.598 -73.545 78.552 -74.162 Q77.506 -74.779 76.468 -74.779 Q75.236 -74.779 74.526 -74.013 Q73.815 -73.247 73.815 -72.002 Q73.815 -70.284 76.709 -67.477 Q79.603 -64.67 87.968 -57.665 Z"/></g><g id="Medium-M" transform="matrix(1 0 0 1 1689.91 1126)"><path d="M7.698 -40.14  34.432 -88.219  61.136 -40.14 H7.698 Z M34.462 11.683 Q25.793 11.683 19.619 5.517 Q13.446 -0.649 13.446 -9.307 Q13.446 -18.097 19.619 -24.208 Q25.792 -30.32 34.461 -30.32 Q43.13 -30.32 49.289 -24.146 Q55.448 -17.973 55.448 -9.304 Q55.448 -0.635 49.284 5.524 Q43.119 11.683 34.462 11.683 Z M34.461 0.308 Q38.438 0.308 41.255 -2.515 Q44.073 -5.339 44.073 -9.303 Q44.073 -13.28 41.25 -16.112 Q38.427 -18.945 34.462 -18.945 Q30.485 -18.945 27.653 -16.113 Q24.821 -13.281 24.821 -9.304 Q24.821 -5.328 27.652 -2.51 Q30.484 0.308 34.461 0.308 Z M27.06 -51.515 H41.804 L34.432 -64.754 L27.06 -51.515 Z M65.239 11.683 V-30.32 H107.242 V11.683 H65.239 Z M76.614 0.308 H95.867 V-18.945 H76.614 V0.308 Z M86.255 -40.14 Q78.652 -46.559 73.63 -50.938 Q68.609 -55.317 65.659 -58.621 Q62.709 -61.926 61.474 -64.78 Q60.239 -67.635 60.239 -70.879 Q60.239 -76.953 64.371 -80.992 Q68.503 -85.032 74.796 -85.032 Q78.234 -85.032 81.226 -83.453 Q84.218 -81.875 86.255 -79.097 Q88.298 -81.875 91.298 -83.453 Q94.298 -85.032 97.745 -85.032 Q104.038 -85.032 108.155 -80.992 Q112.272 -76.953 112.272 -70.879 Q112.272 -67.635 111.037 -64.78 Q109.802 -61.926 106.852 -58.621 Q103.902 -55.317 98.88 -50.938 Q93.859 -46.559 86.255 -40.14 Z M86.255 -55.178 Q94.986 -62.469 97.942 -65.46 Q100.897 -68.45 100.897 -70.331 Q100.897 -71.795 100.055 -72.696 Q99.214 -73.597 97.755 -73.597 Q96.588 -73.597 95.479 -72.939 Q94.37 -72.282 92.65 -70.621 L86.255 -64.686 L79.891 -70.621 Q78.171 -72.282 77.043 -72.939 Q75.916 -73.597 74.755 -73.597 Q73.297 -73.597 72.456 -72.696 Q71.614 -71.795 71.614 -70.331 Q71.614 -68.45 74.569 -65.46 Q77.525 -62.469 86.255 -55.178 Z"/></g><g id="Regular-M" transform="matrix(1 0 0 1 1394.06 1126)"><path d="M10 -40.23  35 -85.23  60 -40.23 H10 Z M35 9.77 Q26.75 9.77 20.875 3.895 Q15 -1.98 15 -10.23 Q15 -18.605 20.875 -24.417 Q26.75 -30.23 35 -30.23 Q43.25 -30.23 49.125 -24.355 Q55 -18.48 55 -10.23 Q55 -1.98 49.125 3.895 Q43.25 9.77 35 9.77 Z M35 -0.23 Q39.125 -0.23 42.062 -3.167 Q45 -6.105 45 -10.23 Q45 -14.355 42.062 -17.292 Q39.125 -20.23 35 -20.23 Q30.875 -20.23 27.938 -17.292 Q25 -14.355 25 -10.23 Q25 -6.105 27.938 -3.167 Q30.875 -0.23 35 -0.23 Z M27 -50.23 H43 L35 -64.605 L27 -50.23 Z M65 9.77 V-30.23 H105 V9.77 H65 Z M75 -0.23 H95 V-20.23 H75 V-0.23 Z M85 -40.23 Q77.875 -46.23 73.062 -50.355 Q68.25 -54.48 65.375 -57.605 Q62.5 -60.73 61.25 -63.48 Q60 -66.23 60 -69.355 Q60 -74.98 63.938 -78.855 Q67.875 -82.73 73.75 -82.73 Q77.125 -82.73 80.062 -81.167 Q83 -79.605 85 -76.855 Q87 -79.605 89.938 -81.167 Q92.875 -82.73 96.25 -82.73 Q102.125 -82.73 106.062 -78.855 Q110 -74.98 110 -69.355 Q110 -66.23 108.75 -63.48 Q107.5 -60.73 104.625 -57.605 Q101.75 -54.48 96.938 -50.355 Q92.125 -46.23 85 -40.23 Z M85 -53.355 Q94 -60.855 97 -63.98 Q100 -67.105 100 -69.105 Q100 -70.73 99.062 -71.73 Q98.125 -72.73 96.5 -72.73 Q95.25 -72.73 94.062 -72.042 Q92.875 -71.355 91.125 -69.605 L85 -63.73 L78.875 -69.605 Q77.125 -71.355 75.938 -72.042 Q74.75 -72.73 73.5 -72.73 Q71.875 -72.73 70.938 -71.73 Q70 -70.73 70 -69.105 Q70 -67.105 73 -63.98 Q76 -60.855 85 -53.355 Z"/></g><g id="Light-M" transform="matrix(1 0 0 1 1098.18 1126)"><path d="M11.923 -41.672  35.096 -82.778  58.269 -41.672 H11.923 Z M35.144 8.568 Q27.327 8.568 21.837 3.078 Q16.346 -2.413 16.346 -10.209 Q16.346 -18.124 21.837 -23.576 Q27.327 -29.028 35.144 -29.028 Q42.962 -29.028 48.452 -23.538 Q53.942 -18.047 53.942 -10.23 Q53.942 -2.413 48.452 3.078 Q42.962 8.568 35.144 8.568 Z M35.144 1.068 Q39.846 1.068 43.144 -2.23 Q46.442 -5.528 46.442 -10.23 Q46.442 -14.932 43.144 -18.23 Q39.846 -21.528 35.144 -21.528 Q30.442 -21.528 27.144 -18.23 Q23.846 -14.932 23.846 -10.23 Q23.846 -5.528 27.144 -2.23 Q30.442 1.068 35.144 1.068 Z M24.74 -49.172 H45.5 L35.096 -67.394 L24.74 -49.172 Z M66.298 8.568 V-29.028 H103.894 V8.568 H66.298 Z M73.798 1.068 H96.394 V-21.528 H73.798 V1.068 Z M85.096 -41.672 Q79.221 -46.518 74.889 -50.163 Q70.558 -53.807 67.731 -56.86 Q64.904 -59.913 63.51 -62.759 Q62.115 -65.605 62.115 -68.778 Q62.115 -73.826 65.548 -77.22 Q68.981 -80.614 74.183 -80.614 Q77.365 -80.614 80.134 -79.1 Q82.904 -77.586 85.096 -74.739 Q87.288 -77.537 90.106 -79.076 Q92.923 -80.614 96.058 -80.614 Q101.193 -80.614 104.635 -77.143 Q108.077 -73.672 108.077 -68.634 Q108.077 -65.509 106.683 -62.687 Q105.288 -59.864 102.461 -56.836 Q99.635 -53.807 95.303 -50.163 Q90.971 -46.518 85.096 -41.672 Z M85.096 -51.48 Q93.952 -58.595 97.264 -62.249 Q100.577 -65.903 100.577 -68.528 Q100.577 -70.538 99.351 -71.826 Q98.125 -73.115 96.163 -73.115 Q94.731 -73.115 93.37 -72.283 Q92.01 -71.451 89.779 -69.22 L85.096 -64.692 L80.414 -69.22 Q78.135 -71.499 76.803 -72.307 Q75.471 -73.115 74.029 -73.115 Q72.019 -73.115 70.817 -71.898 Q69.615 -70.682 69.615 -68.624 Q69.615 -65.903 72.928 -62.249 Q76.24 -58.595 85.096 -51.48 Z"/></g><g id="Thin-M" transform="matrix(1 0 0 1 802.565 1126)"><path d="M13.846 -43.115  35.192 -80.326  56.538 -43.115 H13.846 Z M35.288 7.366 Q27.904 7.366 22.798 2.26 Q17.692 -2.845 17.692 -10.189 Q17.692 -17.643 22.798 -22.735 Q27.904 -27.826 35.288 -27.826 Q42.673 -27.826 47.779 -22.72 Q52.885 -17.615 52.885 -10.23 Q52.885 -2.845 47.779 2.26 Q42.673 7.366 35.288 7.366 Z M35.288 2.366 Q40.567 2.366 44.226 -1.292 Q47.885 -4.951 47.885 -10.23 Q47.885 -15.509 44.226 -19.167 Q40.567 -22.826 35.288 -22.826 Q30.01 -22.826 26.351 -19.167 Q22.692 -15.509 22.692 -10.23 Q22.692 -4.951 26.351 -1.292 Q30.01 2.366 35.288 2.366 Z M22.481 -48.115 H48 L35.192 -70.182 L22.481 -48.115 Z M67.596 7.366 V-27.826 H102.788 V7.366 H67.596 Z M72.596 2.366 H97.788 V-22.826 H72.596 V2.366 Z M85.192 -43.115 Q80.567 -46.807 76.716 -49.97 Q72.865 -53.134 70.087 -56.115 Q67.308 -59.095 65.769 -62.038 Q64.231 -64.98 64.231 -68.201 Q64.231 -72.672 67.159 -75.586 Q70.087 -78.499 74.615 -78.499 Q77.605 -78.499 80.206 -77.033 Q82.808 -75.567 85.192 -72.624 Q87.577 -75.47 90.274 -76.985 Q92.971 -78.499 95.865 -78.499 Q100.261 -78.499 103.208 -75.432 Q106.154 -72.365 106.154 -67.913 Q106.154 -64.788 104.615 -61.893 Q103.077 -58.999 100.298 -56.066 Q97.519 -53.134 93.668 -49.97 Q89.817 -46.807 85.192 -43.115 Z M85.192 -49.605 Q93.904 -56.336 97.529 -60.518 Q101.154 -64.701 101.154 -67.951 Q101.154 -70.345 99.639 -71.922 Q98.125 -73.499 95.827 -73.499 Q94.212 -73.499 92.678 -72.523 Q91.144 -71.547 88.433 -68.836 L85.192 -65.653 L81.952 -68.836 Q79.144 -71.643 77.668 -72.571 Q76.192 -73.499 74.558 -73.499 Q72.163 -73.499 70.697 -72.066 Q69.231 -70.634 69.231 -68.143 Q69.231 -64.701 72.856 -60.518 Q76.481 -56.336 85.192 -49.605 Z"/></g><g id="Ultralight-M" transform="matrix(1 0 0 1 506.415 1126)"><path d="M15 -43.98  35.25 -78.855  55.5 -43.98 H15 Z M35.375 6.645 Q28.25 6.645 23.375 1.77 Q18.5 -3.105 18.5 -10.176 Q18.5 -17.355 23.375 -22.23 Q28.25 -27.105 35.375 -27.105 Q42.5 -27.105 47.375 -22.23 Q52.25 -17.355 52.25 -10.23 Q52.25 -3.105 47.375 1.77 Q42.5 6.645 35.375 6.645 Z M35.375 3.145 Q41 3.145 44.875 -0.73 Q48.75 -4.605 48.75 -10.23 Q48.75 -15.855 44.875 -19.73 Q41 -23.605 35.375 -23.605 Q29.75 -23.605 25.875 -19.73 Q22 -15.855 22 -10.23 Q22 -4.605 25.875 -0.73 Q29.75 3.145 35.375 3.145 Z M21.125 -47.48 H49.5 L35.25 -71.855 L21.125 -47.48 Z M68.375 6.645 V-27.105 H102.125 V6.645 H68.375 Z M71.875 3.145 H98.625 V-23.605 H71.875 V3.145 Z M85.25 -43.98 Q81.375 -46.98 77.812 -49.855 Q74.25 -52.73 71.5 -55.667 Q68.75 -58.605 67.125 -61.605 Q65.5 -64.605 65.5 -67.855 Q65.5 -71.98 68.125 -74.605 Q70.75 -77.23 74.875 -77.23 Q77.748 -77.23 80.249 -75.792 Q82.75 -74.355 85.25 -71.355 Q87.75 -74.23 90.375 -75.73 Q93 -77.23 95.75 -77.23 Q99.702 -77.23 102.351 -74.405 Q105 -71.58 105 -67.48 Q105 -64.355 103.375 -61.417 Q101.75 -58.48 99 -55.605 Q96.25 -52.73 92.688 -49.855 Q89.125 -46.98 85.25 -43.98 Z M85.25 -48.48 Q93.875 -54.98 97.688 -59.48 Q101.5 -63.98 101.5 -67.605 Q101.5 -70.23 99.812 -71.98 Q98.125 -73.73 95.625 -73.73 Q93.901 -73.73 92.263 -72.667 Q90.625 -71.605 87.625 -68.605 L85.25 -66.23 L82.875 -68.605 Q79.75 -71.73 78.188 -72.73 Q76.625 -73.73 74.875 -73.73 Q72.25 -73.73 70.625 -72.167 Q69 -70.605 69 -67.855 Q69 -63.98 72.812 -59.48 Q76.625 -54.98 85.25 -48.48 Z"/></g><g id="Bold-S" transform="matrix(1 0 0 1 2294.23 696)"><path d="M1.874 -39.668  26.53 -82.964  51.088 -39.668 H1.874 Z M26.629 4.22 Q19.328 4.22 14.201 -0.905 Q9.074 -6.031 9.074 -13.228 Q9.074 -20.535 14.2 -25.663 Q19.327 -30.792 26.627 -30.792 Q33.927 -30.792 39.006 -25.665 Q44.085 -20.538 44.085 -13.238 Q44.085 -5.938 38.987 -0.859 Q33.889 4.22 26.629 4.22 Z M26.646 -7.418 Q29.094 -7.418 30.771 -9.133 Q32.448 -10.849 32.448 -13.258 Q32.448 -15.707 30.732 -17.431 Q29.017 -19.154 26.608 -19.154 Q24.158 -19.154 22.435 -17.411 Q20.711 -15.667 20.711 -13.219 Q20.711 -10.771 22.455 -9.094 Q24.198 -7.418 26.646 -7.418 Z M21.993 -51.306 H31.067 L26.53 -59.294 L21.993 -51.306 Z M52.863 4.22 V-30.792 H87.875 V4.22 H52.863 Z M64.501 -7.418 H76.237 V-19.154 H64.501 V-7.418 Z M70.418 -39.668 Q63.515 -45.487 59.367 -49.243 Q55.219 -52.999 52.907 -55.802 Q50.595 -58.604 49.806 -60.824 Q49.017 -63.044 49.017 -65.772 Q49.017 -71.454 52.419 -74.891 Q55.822 -78.329 61.587 -78.329 Q64.313 -78.329 66.515 -77.241 Q68.718 -76.153 70.418 -73.891 Q72.136 -76.153 74.414 -77.241 Q76.691 -78.329 79.41 -78.329 Q85.113 -78.329 88.467 -74.891 Q91.82 -71.454 91.82 -65.772 Q91.82 -63.044 91.08 -60.824 Q90.341 -58.604 88.01 -55.823 Q85.679 -53.042 81.501 -49.314 Q77.322 -45.586 70.418 -39.668 Z M70.418 -55.448 Q76.237 -60.379 78.21 -62.056 Q80.182 -63.733 80.182 -64.916 Q80.182 -65.47 79.71 -65.982 Q79.238 -66.494 78.728 -66.494 Q78.186 -66.494 77.754 -66.198 Q77.322 -65.902 76.928 -65.606 L70.418 -60.182 L64.106 -65.606 Q63.613 -65.902 63.1 -66.198 Q62.586 -66.494 62.134 -66.494 Q61.598 -66.494 61.126 -65.982 Q60.654 -65.47 60.654 -64.916 Q60.654 -63.634 62.726 -61.908 Q64.797 -60.182 70.418 -55.448 Z"/></g><g id="Semibold-S" transform="matrix(1 0 0 1 1998.1 696)"><path d="M5.175 -39.797  27.345 -78.677  49.458 -39.797 H5.175 Z M27.401 1.476 Q20.701 1.476 16.002 -3.232 Q11.303 -7.941 11.303 -14.552 Q11.303 -21.264 16.002 -25.963 Q20.701 -30.663 27.4 -30.663 Q34.099 -30.663 38.77 -25.964 Q43.442 -21.266 43.442 -14.567 Q43.442 -7.868 38.76 -3.196 Q34.077 1.476 27.401 1.476 Z M27.42 -8.19 Q30.081 -8.19 31.929 -10.069 Q33.777 -11.948 33.777 -14.587 Q33.777 -17.249 31.898 -19.123 Q30.018 -20.998 27.38 -20.998 Q24.718 -20.998 22.843 -19.103 Q20.969 -17.208 20.969 -14.547 Q20.969 -11.886 22.864 -10.038 Q24.759 -8.19 27.42 -8.19 Z M21.908 -49.462 H32.782 L27.345 -59.08 L21.908 -49.462 Z M52.52 1.476 V-30.663 H84.659 V1.476 H52.52 Z M62.185 -8.19 H74.994 V-20.998 H62.185 V-8.19 Z M68.617 -39.797 Q62.4 -45.015 58.552 -48.407 Q54.704 -51.799 52.499 -54.344 Q50.295 -56.889 49.484 -58.958 Q48.674 -61.028 48.674 -63.585 Q48.674 -68.624 51.797 -71.826 Q54.921 -75.028 60.087 -75.028 Q62.723 -75.028 64.846 -73.962 Q66.97 -72.897 68.617 -70.675 Q70.275 -72.897 72.462 -73.962 Q74.65 -75.028 77.267 -75.028 Q82.369 -75.028 85.465 -71.826 Q88.561 -68.624 88.561 -63.585 Q88.561 -61.028 87.8 -58.958 Q87.039 -56.889 84.816 -54.365 Q82.592 -51.841 78.714 -48.478 Q74.835 -45.114 68.617 -39.797 Z M68.617 -52.833 Q74.822 -58.064 76.859 -59.934 Q78.896 -61.803 78.896 -63.158 Q78.896 -63.943 78.286 -64.597 Q77.676 -65.251 76.928 -65.251 Q76.267 -65.251 75.722 -64.912 Q75.178 -64.573 74.741 -64.149 L68.617 -58.81 L62.648 -64.149 Q62.112 -64.573 61.513 -64.912 Q60.914 -65.251 60.333 -65.251 Q59.559 -65.251 58.949 -64.597 Q58.339 -63.943 58.339 -63.158 Q58.339 -61.705 60.474 -59.786 Q62.61 -57.867 68.617 -52.833 Z"/></g><g id="Medium-S" transform="matrix(1 0 0 1 1701.85 696)"><path d="M7.652 -39.893  27.956 -75.461  48.236 -39.893 H7.652 Z M27.98 -0.583 Q21.731 -0.583 17.353 -4.978 Q12.976 -9.373 12.976 -15.545 Q12.976 -21.811 17.353 -26.189 Q21.731 -30.567 27.979 -30.567 Q34.227 -30.567 38.593 -26.189 Q42.96 -21.811 42.96 -15.563 Q42.96 -9.315 38.589 -4.949 Q34.218 -0.583 27.98 -0.583 Z M28 -8.769 Q30.82 -8.769 32.797 -10.771 Q34.774 -12.772 34.774 -15.584 Q34.774 -18.405 32.772 -20.393 Q30.77 -22.381 27.959 -22.381 Q25.137 -22.381 23.149 -20.372 Q21.161 -18.363 21.161 -15.543 Q21.161 -12.722 23.17 -10.745 Q25.179 -8.769 28 -8.769 Z M21.843 -48.079 H34.069 L27.956 -58.919 L21.843 -48.079 Z M52.263 -0.583 V-30.567 H82.247 V-0.583 H52.263 Z M60.449 -8.769 H74.061 V-22.381 H60.449 V-8.769 Z M67.267 -39.893 Q61.564 -44.662 57.941 -47.78 Q54.318 -50.898 52.194 -53.25 Q50.069 -55.602 49.243 -57.559 Q48.416 -59.516 48.416 -61.945 Q48.416 -66.501 51.331 -69.526 Q54.246 -72.551 58.961 -72.551 Q61.529 -72.551 63.594 -71.503 Q65.659 -70.455 67.267 -68.263 Q68.878 -70.455 70.998 -71.503 Q73.119 -72.551 75.658 -72.551 Q80.311 -72.551 83.214 -69.526 Q86.117 -66.501 86.117 -61.945 Q86.117 -59.516 85.34 -57.559 Q84.562 -55.602 82.42 -53.272 Q80.277 -50.941 76.623 -47.851 Q72.97 -44.76 67.267 -39.893 Z M67.267 -50.871 Q73.761 -56.327 75.846 -58.341 Q77.931 -60.356 77.931 -61.84 Q77.931 -62.797 77.218 -63.558 Q76.504 -64.318 75.577 -64.318 Q74.827 -64.318 74.199 -63.947 Q73.57 -63.576 73.1 -63.055 L67.267 -57.781 L61.555 -63.055 Q60.987 -63.576 60.323 -63.947 Q59.659 -64.318 58.982 -64.318 Q58.029 -64.318 57.315 -63.558 Q56.602 -62.797 56.602 -61.84 Q56.602 -60.257 58.786 -58.194 Q60.97 -56.13 67.267 -50.871 Z"/></g><g id="Regular-S" transform="matrix(1 0 0 1 1405.73 696)"><path d="M9.468 -39.964  28.404 -73.102  47.34 -39.964 H9.468 Z M28.404 -2.092 Q22.486 -2.092 18.344 -6.258 Q14.202 -10.423 14.202 -16.273 Q14.202 -22.211 18.344 -26.354 Q22.486 -30.496 28.404 -30.496 Q34.322 -30.496 38.464 -26.354 Q42.606 -22.211 42.606 -16.294 Q42.606 -10.376 38.464 -6.234 Q34.322 -2.092 28.404 -2.092 Z M28.425 -9.193 Q31.363 -9.193 33.434 -11.285 Q35.505 -13.377 35.505 -16.315 Q35.505 -19.253 33.413 -21.324 Q31.321 -23.395 28.383 -23.395 Q25.445 -23.395 23.374 -21.303 Q21.303 -19.211 21.303 -16.273 Q21.303 -13.335 23.395 -11.264 Q25.487 -9.193 28.425 -9.193 Z M21.796 -47.065 H35.012 L28.404 -58.801 L21.796 -47.065 Z M52.074 -2.092 V-30.496 H80.478 V-2.092 H52.074 Z M59.175 -9.193 H73.377 V-23.395 H59.175 V-9.193 Z M66.276 -39.964 Q60.95 -44.402 57.493 -47.32 Q54.035 -50.238 51.97 -52.449 Q49.904 -54.659 49.066 -56.533 Q48.228 -58.407 48.228 -60.742 Q48.228 -64.945 50.989 -67.84 Q53.751 -70.735 58.135 -70.735 Q60.654 -70.735 62.676 -69.699 Q64.698 -68.664 66.276 -66.494 Q67.854 -68.664 69.925 -69.699 Q71.996 -70.735 74.479 -70.735 Q78.801 -70.735 81.563 -67.84 Q84.324 -64.945 84.324 -60.742 Q84.324 -58.407 83.535 -56.533 Q82.746 -54.659 80.662 -52.47 Q78.578 -50.28 75.09 -47.391 Q71.602 -44.501 66.276 -39.964 Z M66.276 -49.432 Q72.983 -55.054 75.103 -57.174 Q77.223 -59.294 77.223 -60.872 Q77.223 -61.957 76.434 -62.796 Q75.645 -63.634 74.586 -63.634 Q73.772 -63.634 73.081 -63.239 Q72.391 -62.845 71.898 -62.253 L66.276 -57.026 L60.753 -62.253 Q60.161 -62.845 59.45 -63.239 Q58.74 -63.634 57.992 -63.634 Q56.907 -63.634 56.118 -62.796 Q55.329 -61.957 55.329 -60.872 Q55.329 -59.196 57.548 -57.026 Q59.767 -54.856 66.276 -49.432 Z"/></g><g id="Light-S" transform="matrix(1 0 0 1 1109.75 696)"><path d="M10.985 -41.102  28.48 -71.167  45.974 -41.102 H10.985 Z M28.518 -3.04 Q22.942 -3.04 19.103 -6.903 Q15.264 -10.765 15.264 -16.257 Q15.264 -21.832 19.103 -25.69 Q22.942 -29.548 28.518 -29.548 Q34.094 -29.548 37.933 -25.709 Q41.771 -21.87 41.771 -16.294 Q41.771 -10.718 37.933 -6.879 Q34.094 -3.04 28.518 -3.04 Z M28.539 -8.169 Q31.932 -8.169 34.287 -10.545 Q36.643 -12.922 36.643 -16.315 Q36.643 -19.708 34.266 -22.064 Q31.89 -24.419 28.497 -24.419 Q25.104 -24.419 22.748 -22.043 Q20.393 -19.666 20.393 -16.273 Q20.393 -12.88 22.769 -10.524 Q25.146 -8.169 28.539 -8.169 Z M20.013 -46.23 H36.984 L28.48 -61.002 L20.013 -46.23 Z M53.098 -3.04 V-29.548 H79.605 V-3.04 H53.098 Z M58.227 -8.169 H74.477 V-24.419 H58.227 V-8.169 Z M66.352 -41.102 Q62.012 -44.63 58.934 -47.168 Q55.856 -49.707 53.829 -51.861 Q51.801 -54.014 50.849 -55.964 Q49.897 -57.914 49.897 -60.287 Q49.897 -64.034 52.26 -66.55 Q54.623 -69.066 58.477 -69.066 Q60.844 -69.066 62.733 -68.068 Q64.622 -67.071 66.352 -64.825 Q68.082 -67.033 70.058 -68.049 Q72.034 -69.066 74.327 -69.066 Q78.066 -69.066 80.437 -66.489 Q82.807 -63.913 82.807 -60.173 Q82.807 -57.838 81.904 -55.907 Q81.001 -53.976 78.955 -51.863 Q76.909 -49.749 73.8 -47.239 Q70.691 -44.728 66.352 -41.102 Z M66.352 -47.953 Q72.945 -53.271 75.312 -55.808 Q77.679 -58.346 77.679 -60.417 Q77.679 -61.806 76.662 -62.872 Q75.645 -63.937 74.321 -63.937 Q73.362 -63.937 72.535 -63.429 Q71.708 -62.921 70.835 -61.95 L66.352 -57.785 L61.967 -61.95 Q60.958 -62.959 60.133 -63.448 Q59.309 -63.937 58.409 -63.937 Q57.02 -63.937 56.023 -62.928 Q55.025 -61.919 55.025 -60.493 Q55.025 -58.247 57.491 -55.66 Q59.956 -53.073 66.352 -47.953 Z"/></g><g id="Thin-S" transform="matrix(1 0 0 1 814.015 696)"><path d="M12.503 -42.24  28.556 -69.233  44.609 -42.24 H12.503 Z M28.632 -3.989 Q23.397 -3.989 19.862 -7.547 Q16.326 -11.106 16.326 -16.241 Q16.326 -21.453 19.862 -25.026 Q23.397 -28.599 28.632 -28.599 Q33.866 -28.599 37.402 -25.064 Q40.937 -21.529 40.937 -16.294 Q40.937 -11.059 37.402 -7.524 Q33.866 -3.989 28.632 -3.989 Z M28.653 -7.145 Q32.501 -7.145 35.141 -9.806 Q37.781 -12.467 37.781 -16.315 Q37.781 -20.163 35.12 -22.803 Q32.459 -25.443 28.611 -25.443 Q24.762 -25.443 22.122 -22.782 Q19.482 -20.121 19.482 -16.273 Q19.482 -12.425 22.143 -9.785 Q24.804 -7.145 28.653 -7.145 Z M18.23 -45.396 H38.957 L28.556 -63.202 L18.23 -45.396 Z M54.122 -3.989 V-28.599 H78.733 V-3.989 H54.122 Z M57.278 -7.145 H75.577 V-25.443 H57.278 V-7.145 Z M66.428 -42.24 Q63.074 -44.857 60.376 -47.017 Q57.677 -49.176 55.687 -51.273 Q53.697 -53.369 52.632 -55.395 Q51.566 -57.421 51.566 -59.831 Q51.566 -63.124 53.531 -65.26 Q55.495 -67.397 58.818 -67.397 Q61.033 -67.397 62.79 -66.437 Q64.546 -65.478 66.428 -63.156 Q68.309 -65.402 70.191 -66.399 Q72.072 -67.397 74.176 -67.397 Q77.331 -67.397 79.31 -65.139 Q81.29 -62.881 81.29 -59.604 Q81.29 -57.269 80.273 -55.281 Q79.257 -53.294 77.249 -51.256 Q75.24 -49.218 72.511 -47.087 Q69.781 -44.956 66.428 -42.24 Z M66.428 -46.473 Q72.907 -51.488 75.52 -54.443 Q78.134 -57.398 78.134 -59.962 Q78.134 -61.654 76.89 -62.947 Q75.645 -64.241 74.055 -64.241 Q72.953 -64.241 71.989 -63.619 Q71.025 -62.997 69.773 -61.646 L66.428 -58.543 L63.181 -61.646 Q61.754 -63.073 60.816 -63.657 Q59.878 -64.241 58.826 -64.241 Q57.134 -64.241 55.928 -63.061 Q54.722 -61.882 54.722 -60.114 Q54.722 -57.299 57.434 -54.295 Q60.146 -51.291 66.428 -46.473 Z"/></g><g id="Ultralight-S" transform="matrix(1 0 0 1 517.792 696)"><path d="M13.413 -42.923  28.601 -68.072  43.79 -42.923 H13.413 Z M28.7 -4.558 Q23.67 -4.558 20.317 -7.934 Q16.963 -11.311 16.963 -16.231 Q16.963 -21.225 20.317 -24.628 Q23.67 -28.03 28.7 -28.03 Q33.73 -28.03 37.083 -24.677 Q40.436 -21.324 40.436 -16.294 Q40.436 -11.264 37.083 -7.911 Q33.73 -4.558 28.7 -4.558 Z M28.721 -6.53 Q32.842 -6.53 35.653 -9.362 Q38.464 -12.194 38.464 -16.315 Q38.464 -20.436 35.632 -23.247 Q32.8 -26.058 28.679 -26.058 Q24.558 -26.058 21.747 -23.226 Q18.936 -20.394 18.936 -16.273 Q18.936 -12.152 21.768 -9.341 Q24.6 -6.53 28.721 -6.53 Z M17.161 -44.895 H40.14 L28.601 -64.522 L17.161 -44.895 Z M54.737 -4.558 V-28.03 H78.21 V-4.558 H54.737 Z M56.709 -6.53 H76.237 V-26.058 H56.709 V-6.53 Z M66.473 -42.923 Q63.712 -44.994 61.241 -46.926 Q58.769 -48.857 56.802 -50.92 Q54.836 -52.982 53.701 -55.054 Q52.567 -57.125 52.567 -59.558 Q52.567 -62.578 54.293 -64.487 Q56.019 -66.395 59.023 -66.395 Q61.146 -66.395 62.823 -65.459 Q64.501 -64.522 66.473 -62.155 Q68.446 -64.423 70.27 -65.409 Q72.095 -66.395 74.085 -66.395 Q76.89 -66.395 78.635 -64.329 Q80.379 -62.262 80.379 -59.262 Q80.379 -56.927 79.294 -54.906 Q78.21 -52.884 76.224 -50.892 Q74.239 -48.9 71.737 -46.996 Q69.235 -45.092 66.473 -42.923 Z M66.473 -45.586 Q72.884 -50.418 75.645 -53.624 Q78.407 -56.829 78.407 -59.689 Q78.407 -61.563 77.026 -62.993 Q75.645 -64.423 73.896 -64.423 Q72.707 -64.423 71.661 -63.733 Q70.615 -63.042 69.136 -61.464 L66.473 -58.999 L63.909 -61.464 Q62.232 -63.141 61.226 -63.782 Q60.219 -64.423 59.076 -64.423 Q57.203 -64.423 55.871 -63.141 Q54.54 -61.859 54.54 -59.886 Q54.54 -56.73 57.4 -53.476 Q60.26 -50.221 66.473 -45.586 Z"/></g></g></svg>